<?xml version="1.0" encoding="UTF-8" standalone="no"?>
<svg width="64px" height="32px" viewBox="0 0 64 32" version="1.1" xmlns="http://www.w3.org/2000/svg" xmlns:xlink="http://www.w3.org/1999/xlink">
    <!-- Generator: Sketch 3.8.3 (29802) - http://www.bohemiancoding.com/sketch -->
    <title>Logo</title>
    <desc>Created with Sketch.</desc>
    <defs></defs>
    <g id="Desktop" stroke="none" stroke-width="1" fill="none" fill-rule="evenodd">
        <g id="01-2-1-Navigation" transform="translate(-130.000000, -65.000000)" fill="#EF0D33">
            <g id="NAVIGATION" transform="translate(130.000000, 58.000000)">
                <g id="Group" transform="translate(0.000000, 7.000000)">
                    <path d="M60,31.2 L54,31.2 L50.2,0.8 L54.3,0.8 L57,25.6 L59.7,0.8 L63.8,0.8 L60,31.2 Z M42.6,31.2 L39,18.6 L37.4,18.6 L37.4,31.2 L33.2,31.2 L33.2,0.8 L40.5,0.8 C42.1,0.8 43.4,1.3 44.5,2.3 C45.5,3.3 46.1,4.9 46.1,7.2 L46.1,11.9 C46.1,13.4 45.8,14.7 45.3,15.7 C44.7,16.7 44,17.4 43.1,17.8 L47,31.3 L42.6,31.3 L42.6,31.2 Z M41.8,7.7 C41.8,6.6 41.6,5.8 41.2,5.3 C40.8,4.8 40.2,4.6 39.4,4.6 L37.3,4.6 L37.3,14.6 L39.4,14.6 C40.2,14.6 40.8,14.4 41.2,13.9 C41.6,13.4 41.8,12.7 41.8,11.5 L41.8,7.7 Z M24.8,4.8 L24.8,31.2 L20.7,31.2 L20.7,4.8 L16.4,4.8 L16.4,0.8 L29.2,0.8 L29.2,4.8 L24.8,4.8 Z M11,30 C9.8,31 8.3,31.5 6.4,31.5 C4.5,31.5 3,31 1.8,29.9 C0.6,28.9 0,27.2 0,25.1 L0,20.8 L4.1,20.8 L4.1,24.6 C4.1,25.7 4.3,26.5 4.8,27 C5.3,27.5 5.8,27.7 6.4,27.7 C7,27.7 7.5,27.5 8,27 C8.5,26.5 8.7,25.8 8.7,24.6 L8.7,22.1 C8.7,21.5 8.5,21 8.1,20.4 C7.7,19.9 7.1,19.3 6.5,18.7 C5.9,18.1 5.2,17.5 4.4,16.9 C3.6,16.3 2.9,15.6 2.3,14.9 C1.7,14.2 1.1,13.4 0.7,12.6 C0.3,11.8 0.1,10.9 0.1,9.9 L0.1,6.4 C0.1,5.3 0.3,4.3 0.6,3.5 C0.9,2.7 1.4,2 2,1.5 C2.6,1 3.3,0.6 4,0.4 C4.8,0.2 5.6,0 6.5,0 C7.4,0 8.2,0.1 9,0.4 C9.8,0.6 10.5,1 11,1.5 C11.6,2 12.1,2.7 12.4,3.5 C12.7,4.3 12.9,5.3 12.9,6.4 L12.9,10.8 L8.8,10.8 L8.8,6.9 C8.8,5.8 8.6,5 8.1,4.5 C7.6,4 7.1,3.8 6.5,3.8 C5.9,3.8 5.4,4 4.9,4.5 C4.4,5 4.2,5.7 4.2,6.9 L4.2,9.1 C4.2,9.9 4.4,10.6 4.8,11.2 C5.2,11.8 5.8,12.4 6.4,13 C7,13.6 7.7,14.1 8.5,14.7 C9.3,15.3 10,15.8 10.6,16.5 C11.2,17.1 11.8,17.8 12.2,18.5 C12.6,19.2 12.8,20.1 12.8,21.1 L12.8,24.9 C12.8,27.4 12.2,29 11,30 Z" id="Combined-Shape"></path>
                </g>
            </g>
        </g>
    </g>
</svg>